# AST/ASF file generated using VICON BodyLanguage
# -----------------------------------------------
:version 1.10
:name VICON
:units
  mass 1.0
  length 0.45
  angle deg
:documentation
   .ast/.asf automatically generated from VICON data using
   VICON BodyBuilder and BodyLanguage model FoxedUp or BRILLIANT.MOD
:root
   order TX TY TZ RX RY RZ
   axis XYZ
   position 0 0 0  
   orientation 0 0 0 
:bonedata
  begin
     id 1 
     name lhipjoint
     direction 0.660183 -0.676772 0.325788 
     length 2.75133 
     axis 0 0 0  XYZ
  end
  begin
     id 2 
     name lfemur
     direction 0.34202 -0.939693 0  
     length 7.70317  
     axis 0 0 20  XYZ
    dof rx ry rz
    limits (-160.0 20.0)
           (-70.0 70.0)
           (-60.0 70.0)
  end
  begin
     id 3 
     name ltibia
     direction 0.342105 -0.939662 0   
     length 7.18701   
     axis 0 0 20   XYZ
    dof rx
    limits (-10.0 170.0)
  end
  begin
     id 4 
     name lfoot
     direction 0.14163 -0.389126 0.910232   
     length 2.41719   
     axis -90 7.62852e-016 20   XYZ
    dof rx rz
    limits (-45.0 90.0)
           (-70.0 20.0)
  end
  begin
     id 5 
     name ltoes
     direction 1.53533e-011 -4.21926e-011 1   
     length 1.18611   
     axis -90 7.62852e-016 20   XYZ
    dof rx
    limits (-90.0 20.0)
  end
  begin
     id 6 
     name rhipjoint
     direction -0.6658 -0.67229 0.323631   
     length 2.76968  
     axis 0 0 0  XYZ 
  end
  begin
     id 7 
     name rfemur
     direction -0.34202 -0.939693 0   
     length 7.92547   
     axis 0 0 -20   XYZ
    dof rx ry rz
    limits (-160.0 20.0)
           (-70.0 70.0)
           (-70.0 60.0)
  end
  begin
     id 8 
     name rtibia
     direction -0.342022 -0.939692 0   
     length 7.22641   
     axis 0 0 -20   XYZ
    dof rx
    limits (-10.0 170.0)
 end
 begin
     id 9 
     name rfoot
     direction -0.105675 -0.29034 0.951071   
     length 2.48149  
     axis -90 -7.62852e-016 -20   XYZ
    dof rx rz
    limits (-45.0 90.0)
           (-20.0 70.0)
  end
  begin
     id 10 
     name rtoes
     direction -1.5349e-011 -4.21859e-011 1   
     length 1.23343   
     axis -90 -7.62852e-016 -20   XYZ
    dof rx
    limits (-90.0 20.0)
  end
  begin
     id 11 
     name lowerback
     direction 0.0104173 0.993624 -0.112266   
     length 2.00527   
     axis 0 0 0   XYZ
    dof rx ry rz
    limits (-20.0 45.0)
           (-30.0 30.0)
           (-30.0 30.0)
  end
  begin
     id 12 
     name upperback
     direction 0.00733149 0.999856 -0.0152913   
     length 2.01385   
     axis 0 0 0   XYZ
    dof rx ry rz
    limits (-20.0 45.0)
           (-30.0 30.0)
           (-30.0 30.0)
  end
  begin
     id 13 
     name thorax
     direction 0.0026304 0.999318 0.036841   
     length 2.03734   
     axis 0 0 0   XYZ
    dof rx ry rz
    limits (-20.0 45.0)
           (-30.0 30.0)
           (-30.0 30.0)
  end
  begin
     id 14 
     name lowerneck
     direction 0.0293154 0.998757 0.0403082   
     length 1.65303   
     axis 0 0 0   XYZ
    dof rx ry rz
    limits (-20.0 45.0)
           (-30.0 30.0)
           (-30.0 30.0)
  end
  begin
     id 15 
     name upperneck
     direction -0.0376619 0.998184 -0.0470083   
     length 1.60926   
     axis 0 0 0   XYZ
    dof rx ry rz
    limits (-20.0 45.0)
           (-30.0 30.0)
           (-30.0 30.0)
  end
  begin
     id 16
     name head
     direction -0.0170133 0.999635 -0.0209778  
     length 1.73625  
     axis 0 0 0   XYZ
    dof rx ry rz
    limits (-20.0 45.0)
           (-30.0 30.0)
           (-30.0 30.0)
  end
  begin
     id 17 
     name lclavicle
     direction 0.919857 0.39181 -0.0186333  
     length 3.75313  
     axis 0 0 0   XYZ
    dof ry rz
    limits (-20.0 10.0)
           (0.0 20.0)
  end
  begin
     id 18 
     name lhumerus
     direction 1 -4.48988e-011 1.44029e-027   
     length 5.49313   
     axis 180 -30 -90   XYZ
    dof rx ry rz
    limits (-60.0 90.0)
           (-90.0 90.0)
           (-90.0 90.0)
  end
  begin
     id 19
     name lradius
     direction 1 -4.48924e-011 7.46281e-027   
     length 3.29037   
     axis 180 -30 -90   XYZ
    dof rx
    limits (-10.0 170.0)
  end
  begin
     id 20
     name lwrist
     direction 1 -4.48955e-011 2.19879e-026   
     length 1.64519   
     axis -1.34358e-014 90 90   XYZ
    dof ry
    limits (-180.0 0.0)
 end
  begin
     id 21 
     name lhand
     direction 1 -4.48978e-011 4.39747e-026   
     length 0.729656   
     axis -2.80598e-014 90 90   XYZ
    dof rx rz
    limits (-90.0 90.0)
           (-45.0 45.0)
  end
  begin
     id 22 
     name lfingers
     direction 1 -4.49071e-011 8.79411e-026   
     length 0.588268   
     axis -5.61193e-014 90 90   XYZ
    dof rx
    limits (0.0 90.0)
  end
  begin
     id 23
     name lthumb
     direction 0.707107 -6.34817e-011 0.707107   
     length 0.844638   
     axis -90 45 -9.86923e-015   XYZ
    dof rx rz
    limits (-45.0 45.0)
           (-45.0 45.0)
  end
  begin
     id 24 
     name rclavicle
     direction -0.919898 0.388279 0.0550233   
     length 3.7171  
     axis 0 0 0   XYZ 
    dof ry rz
    limits (-10.0 20.0)
           (-20.0 0.0)
  end
  begin
     id 25 
     name rhumerus
     direction -1 -4.48968e-011 9.98372e-028  
     length 5.23684   
     axis 180 30 90   XYZ
    dof rx ry rz
    limits (-90.0 60.0)
           (-90.0 90.0)
           (-90.0 90.0)
  end
  begin
     id 26 
     name rradius
     direction -1 -4.48956e-011 1.01023e-026   
     length 3.38251   
     axis 180 30 90   XYZ
    dof rx
    limits (-10.0 170.0)
  end
  begin
     id 27 
     name rwrist
     direction -1 -4.4892e-011 2.19886e-026   
     length 1.69126   
     axis -1.34358e-014 -90 -90   XYZ
    dof ry
    limits (-180.0 0.0)
  end
  begin
     id 28
     name rhand
     direction -1 -4.49024e-011 4.39727e-026   
     length 0.691454   
     axis -2.80598e-014 -90 -90   XYZ
    dof rx rz
    limits (-90.0 90.0)
           (-45.0 45.0)
  end
  begin
     id 29
     name rfingers
     direction -1 -4.49097e-011 8.79388e-026   
     length 0.557468   
     axis -5.61193e-014 -90 -90   XYZ
    dof rx
    limits (0.0 90.0)
  end
  begin
     id 30
     name rthumb
     direction -0.707107 -6.34938e-011 0.707107   
     length 0.800416   
     axis -90 -45 9.86923e-015   XYZ
    dof rx rz
    limits (-45.0 45.0)
           (-45.0 45.0)
  end
:hierarchy
  begin
    root lhipjoint rhipjoint lowerback
    lhipjoint lfemur
    lfemur ltibia
    ltibia lfoot
    lfoot ltoes
    rhipjoint rfemur
    rfemur rtibia
    rtibia rfoot
    rfoot rtoes
    lowerback upperback
    upperback thorax
    thorax lowerneck lclavicle rclavicle
    lowerneck upperneck
    upperneck head
    lclavicle lhumerus
    lhumerus lradius
    lradius lwrist
    lwrist lhand lthumb
    lhand lfingers
    rclavicle rhumerus
    rhumerus rradius
    rradius rwrist
    rwrist rhand rthumb
    rhand rfingers
  end

#!OML:ASF H:\BabyWalks\Project 1\Capture day 1\Session 1\baby.ASF
:FULLY-SPECIFIED
:DEGREES
275
root -16.1809 17.2216 -1.55046 127.414 85.4165 126.222
lowerback 21.9683 -3.25032 -7.10328
upperback 5.83514 -5.37771 -0.474434
thorax -5.18752 -2.40958 4.85999
lowerneck -6.76449 1.42808 5.7857
upperneck 8.93213 2.07367 -7.33352
head 3.90256 0.868373 -3.07915
rclavicle -3.49861e-014 3.02153e-014
rhumerus -59.4734 18.0983 -86.8372
rradius 45.4954
rwrist -3.53945
rhand -4.72164 -18.7667
rfingers 7.12502
rthumb 21.0608 -47.6431
lclavicle -3.49861e-014 3.02153e-014
lhumerus -30.8197 -21.4481 70.845
lradius 81.3772
lwrist 6.64759
lhand -10.952 3.13493
lfingers 7.12502
lthumb 15.0667 32.5666
rfemur -34.3856 3.80042 11.103
rtibia 29.85
rfoot -15.774 -0.115273
rtoes -13.0636
lfemur 6.00418 -9.95644 -22.4673
ltibia 28.5511
lfoot -25.7314 -15.1991
ltoes -0.171668
276
root -15.9757 17.2039 -1.52044 130.039 84.7618 128.979
lowerback 21.7943 -3.3938 -7.07529
upperback 5.79437 -5.54033 -0.316506
thorax -5.10763 -2.49494 5.04077
lowerneck -6.75443 1.41551 5.81378
upperneck 9.18236 2.13631 -7.92115
head 3.98642 0.872933 -3.2637
rclavicle 2.13694e-014 3.49861e-014
rhumerus -59.7691 17.9945 -86.5669
rradius 45.391
rwrist -3.59477
rhand -4.52791 -18.7821
rfingers 7.12502
rthumb 21.2469 -47.6376
lclavicle 2.13694e-014 3.49861e-014
lhumerus -31.2884 -21.277 71.1226
lradius 81.5655
lwrist 6.95907
lhand -10.6658 3.28076
lfingers 7.12502
lthumb 15.3424 32.6916
rfemur -33.9413 4.01264 10.5295
rtibia 29.7233
rfoot -14.9128 -0.167942
rtoes -12.6009
lfemur 6.54423 -9.92197 -22.5868
ltibia 28.8399
lfoot -24.9753 -16.4379
ltoes -0.579574
277
root -15.7718 17.1833 -1.48903 132.178 84.1076 131.277
lowerback 21.644 -3.52139 -7.03516
upperback 5.76159 -5.68043 -0.16156
thorax -5.03483 -2.56878 5.20687
lowerneck -6.7187 1.39035 5.85751
upperneck 9.37199 2.17926 -8.49526
head 4.04657 0.86949 -3.44814
rclavicle 1.17283e-014 -3.97569e-015
rhumerus -60.0192 17.8364 -86.2888
rradius 45.2408
rwrist -3.58312
rhand -4.30049 -18.7886
rfingers 7.12502
rthumb 21.4654 -47.6194
lclavicle 1.17283e-014 -3.97569e-015
lhumerus -31.7854 -21.1322 71.4298
lradius 81.6539
lwrist 7.19023
lhand -10.3778 3.47373
lfingers 7.12502
lthumb 15.6198 32.8631
rfemur -33.4847 4.1039 10.0606
rtibia 29.8849
rfoot -13.7224 0.134345
rtoes -11.8466
lfemur 6.92727 -9.78286 -22.6097
ltibia 29.4118
lfoot -24.0942 -17.8912
ltoes -0.880505
278
root -15.57 17.1611 -1.45632 133.996 83.4757 133.28
lowerback 21.5321 -3.63015 -6.96758
upperback 5.7371 -5.79152 -0.00637046
thorax -4.97889 -2.62735 5.35335
lowerneck -6.66355 1.3558 5.92217
upperneck 9.50003 2.20514 -9.06065
head 4.08383 0.859558 -3.63457
rclavicle -8.59744e-014 1.42131e-014
rhumerus -60.2112 17.6077 -85.9937
rradius 45.0343
rwrist -3.48831
rhand -4.05175 -18.7862
rfingers 7.12502
rthumb 21.7043 -47.5895
lclavicle -8.59744e-014 1.42131e-014
lhumerus -32.2991 -21.009 71.7676
lradius 81.6266
lwrist 7.31405
lhand -10.1078 3.68069
lfingers 7.12502
lthumb 15.8798 33.0496
rfemur -33.0374 4.09812 9.70133
rtibia 30.3266
rfoot -12.2657 0.709806
rtoes -10.8531
lfemur 7.1409 -9.5497 -22.5188
ltibia 30.2822
lfoot -23.0284 -19.5418
ltoes -1.1002
279
root -15.3716 17.1384 -1.42222 135.694 82.8889 135.191
lowerback 21.466 -3.72011 -6.85999
upperback 5.72722 -5.86972 0.161319
thorax -4.93765 -2.66889 5.48629
lowerneck -6.59772 1.31427 6.01091
upperneck 9.56728 2.21723 -9.6335
head 4.10022 0.844268 -3.82824
rclavicle 5.11995e-014 -2.95692e-015
rhumerus -60.32 17.3197 -85.6718
rradius 44.7581
rwrist -3.32462
rhand -3.80459 -18.764
rfingers 7.12502
rthumb 21.9416 -47.5397
lclavicle 5.11995e-014 -2.95692e-015
lhumerus -32.8258 -20.9005 72.1388
lradius 81.4883
lwrist 7.31801
lhand -9.8755 3.88642
lfingers 7.12502
lthumb 16.1035 33.2373
rfemur -32.6074 4.02646 9.4648
rtibia 31.0234
rfoot -10.6671 1.31083
rtoes -9.68755
lfemur 7.16494 -9.24263 -22.2909
ltibia 31.4731
lfoot -21.7265 -21.3581
ltoes -1.26124
280
root -15.1769 17.1164 -1.38696 137.51 82.3708 137.251
lowerback 21.4518 -3.79459 -6.67214
upperback 5.73702 -5.90989 0.347364
thorax -4.91348 -2.6908 5.5889
lowerneck -6.52782 1.26389 6.11854
upperneck 9.57723 2.21084 -10.199
head 4.09719 0.8219 -4.02387
rclavicle 5.4964e-014 -1.33683e-014
rhumerus -60.3344 16.9551 -85.3158
rradius 44.4081
rwrist -3.08226
rhand -3.56617 -18.7351
rfingers 7.12502
rthumb 22.1705 -47.4838
lclavicle 5.4964e-014 -1.33683e-014
lhumerus -33.3582 -20.8147 72.5403
lradius 81.2404
lwrist 7.20379
lhand -9.70177 4.09448
lfingers 7.12502
lthumb 16.2708 33.4318
rfemur -32.1951 3.91538 9.37771
rtibia 31.9374
rfoot -9.11097 1.84673
rtoes -8.27848
lfemur 6.98782 -8.8868 -21.8958
ltibia 32.9965
lfoot -20.111 -23.3066
ltoes -1.2638
281
root -14.9866 17.0956 -1.351 139.657 81.9656 139.665
lowerback 21.4791 -3.85442 -6.35695
upperback 5.76993 -5.90093 0.566299
thorax -4.90263 -2.68808 5.64708
lowerneck -6.46489 1.20481 6.24
upperneck 9.53943 2.18538 -10.7506
head 4.07918 0.792075 -4.21856
rclavicle 7.13637e-014 1.15295e-014
rhumerus -60.2343 16.5158 -84.917
rradius 43.9763
rwrist -2.76471
rhand -3.3409 -18.7105
rfingers 7.12502
rthumb 22.3868 -47.4334
lclavicle 7.13637e-014 1.15295e-014
lhumerus -33.9013 -20.757 72.9705
lradius 80.9012
lwrist 6.99423
lhand -9.59853 4.2971
lfingers 7.12502
lthumb 16.3702 33.6262
rfemur -31.8075 3.7932 9.49276
rtibia 33.0089
rfoot -7.78283 2.22991
rtoes -6.74527
lfemur 6.5934 -8.49431 -21.2906
ltibia 34.8564
lfoot -18.1472 -25.309
ltoes -1.0523
